# xmcd
#
# Track frame offsets:
#	150
#	16323
#	26515
#	39363
#	56199
#	68079
#	78404
#	89750
#	107915
#	121130
#	135632
#	144742
#	153675
#	165501
#	181195
#	189779
#	199456
#	210650
#	223524
#	239979
#	249603
#	258017
#	267291
#	285442
#	296041
#	307928
#
# Disc length: 4364 seconds
#
# Revision: 0
# Processed by: cddbd v1.4PL0 Copyright (c) Steve Scherf et al.
# Submitted via: EasyCDDAExtractor 4.6.9.1
#
DISCID=82110a1a
DTITLE=SIMONE AUBE&LARRY ROBICHAUD - ALBUM SOUVENIR
DYEAR=1900
DGENRE=
TTITLE0=Joni
TTITLE1=Mon Pere Et Moi
TTITLE2=Le Pecheur Acadien
TTITLE3=Parton La Mer Est Belle
TTITLE4=Les Flots Bleu
TTITLE5=Adieu
TTITLE6=De Toi Je M'ennui
TTITLE7=Maman Cherie Reste Avec Moi
TTITLE8=Les Cloches Sonnes
TTITLE9=Le Passer Est Present
TTITLE10=Viens Avec Moi
TTITLE11=Dernier Baiser
TTITLE12=Reviens Cherie
TTITLE13=Aide-moi A Oublier
TTITLE14=L'arbre Graver
TTITLE15=C'est L'amour
TTITLE16=Douce Nuit Etoiler
TTITLE17=Souviens-Toi De Moi
TTITLE18=Le Seule dans Ton Coeur
TTITLE19=Dis-Lui Non
TTITLE20=Je T'ai Donner Mon Coeur
TTITLE21=A Toi Que J'aimes 
TTITLE22=Maman Cherie Reste Avec Moi
TTITLE23=J'ai Changer Mon Numeros
TTITLE24=Le Retour A La terre
TTITLE25=Sur La Montagne Du Loup
EXTD=
EXTT0=
EXTT1=
EXTT2=
EXTT3=
EXTT4=
EXTT5=
EXTT6=
EXTT7=
EXTT8=
EXTT9=
EXTT10=
EXTT11=
EXTT12=
EXTT13=
EXTT14=
EXTT15=
EXTT16=
EXTT17=
EXTT18=
EXTT19=
EXTT20=
EXTT21=
EXTT22=
EXTT23=
EXTT24=
EXTT25=
PLAYORDER=
